<svg width="32" height="32" viewBox="0 0 32 32" fill="none" xmlns="http://www.w3.org/2000/svg">
<rect width="32" height="32" rx="4" fill="#262626"/>
<path d="M4.06325 19V13.9091H7.1357V14.456H4.67973V16.1761H6.97661V16.723H4.67973V18.4531H7.17547V19H4.06325ZM8.6048 15.1818L9.51958 16.7429L10.4343 15.1818H11.1105L9.87753 17.0909L11.1105 19H10.4343L9.51958 17.5185L8.6048 19H7.92867L9.14173 17.0909L7.92867 15.1818H8.6048ZM11.9476 20.4318V15.1818H12.5143V15.7884H12.5839C12.627 15.7221 12.6867 15.6375 12.7629 15.5348C12.8408 15.4304 12.9518 15.3376 13.096 15.2564C13.2418 15.1735 13.4391 15.1321 13.6876 15.1321C14.0091 15.1321 14.2925 15.2125 14.5378 15.3732C14.783 15.534 14.9744 15.7618 15.112 16.0568C15.2495 16.3518 15.3183 16.6998 15.3183 17.1009C15.3183 17.5052 15.2495 17.8557 15.112 18.1523C14.9744 18.4473 14.7839 18.676 14.5403 18.8384C14.2967 18.9992 14.0158 19.0795 13.6976 19.0795C13.4523 19.0795 13.2559 19.0389 13.1084 18.9577C12.961 18.8749 12.8474 18.7812 12.7679 18.6768C12.6883 18.5708 12.627 18.483 12.5839 18.4134H12.5342V20.4318H11.9476ZM12.5243 17.0909C12.5243 17.3793 12.5665 17.6336 12.6511 17.854C12.7356 18.0728 12.859 18.2443 13.0214 18.3686C13.1838 18.4912 13.3827 18.5526 13.618 18.5526C13.8633 18.5526 14.068 18.4879 14.232 18.3587C14.3977 18.2277 14.522 18.0521 14.6049 17.8317C14.6894 17.6096 14.7317 17.3627 14.7317 17.0909C14.7317 16.8224 14.6902 16.5805 14.6074 16.3651C14.5262 16.148 14.4027 15.9764 14.237 15.8505C14.0729 15.7229 13.8666 15.6591 13.618 15.6591C13.3794 15.6591 13.1789 15.7196 13.0165 15.8406C12.8541 15.9599 12.7314 16.1272 12.6486 16.3427C12.5657 16.5565 12.5243 16.8059 12.5243 17.0909ZM16.2132 19V15.1818H16.78V15.7585H16.8197C16.8893 15.5696 17.0153 15.4163 17.1976 15.2987C17.3799 15.181 17.5854 15.1222 17.8141 15.1222C17.8571 15.1222 17.911 15.123 17.9756 15.1246C18.0403 15.1263 18.0891 15.1288 18.1223 15.1321V15.7287C18.1024 15.7237 18.0568 15.7163 17.9856 15.7063C17.916 15.6947 17.8422 15.6889 17.7643 15.6889C17.5787 15.6889 17.413 15.7279 17.2672 15.8058C17.123 15.882 17.0087 15.988 16.9241 16.1239C16.8413 16.2582 16.7998 16.4115 16.7998 16.5838V19H16.2132ZM20.3023 19.0795C19.9344 19.0795 19.6171 18.9983 19.3503 18.8359C19.0851 18.6719 18.8805 18.4432 18.7363 18.1499C18.5938 17.8549 18.5225 17.5118 18.5225 17.1207C18.5225 16.7296 18.5938 16.3849 18.7363 16.0866C18.8805 15.7867 19.081 15.553 19.3378 15.3857C19.5964 15.2166 19.898 15.1321 20.2427 15.1321C20.4415 15.1321 20.6379 15.1652 20.8318 15.2315C21.0257 15.2978 21.2022 15.4055 21.3613 15.5547C21.5204 15.7022 21.6472 15.8977 21.7416 16.1413C21.8361 16.3849 21.8833 16.6849 21.8833 17.0412V17.2898H18.9401V16.7827H21.2867C21.2867 16.5672 21.2436 16.375 21.1574 16.206C21.0729 16.0369 20.952 15.9035 20.7945 15.8058C20.6387 15.708 20.4548 15.6591 20.2427 15.6591C20.009 15.6591 19.8068 15.7171 19.6361 15.8331C19.4671 15.9474 19.337 16.0966 19.2459 16.2805C19.1547 16.4645 19.1092 16.6617 19.1092 16.8722V17.2102C19.1092 17.4986 19.1589 17.743 19.2583 17.9435C19.3594 18.1424 19.4994 18.294 19.6784 18.3984C19.8574 18.5012 20.0654 18.5526 20.3023 18.5526C20.4565 18.5526 20.5957 18.531 20.7199 18.4879C20.8459 18.4432 20.9544 18.3769 21.0456 18.2891C21.1367 18.1996 21.2072 18.0885 21.2569 17.956L21.8236 18.1151C21.764 18.3073 21.6637 18.4763 21.5229 18.6222C21.382 18.7663 21.208 18.879 21.0008 18.9602C20.7937 19.0398 20.5609 19.0795 20.3023 19.0795ZM25.4802 16.0369L24.9533 16.1861C24.9201 16.0982 24.8712 16.0129 24.8066 15.93C24.7436 15.8455 24.6574 15.7759 24.5481 15.7212C24.4387 15.6665 24.2987 15.6392 24.128 15.6392C23.8943 15.6392 23.6996 15.6931 23.5438 15.8008C23.3897 15.9068 23.3126 16.0419 23.3126 16.206C23.3126 16.3518 23.3657 16.467 23.4717 16.5515C23.5778 16.636 23.7435 16.7064 23.9689 16.7628L24.5356 16.902C24.877 16.9848 25.1314 17.1116 25.2988 17.2823C25.4662 17.4513 25.5498 17.6693 25.5498 17.9361C25.5498 18.1548 25.4869 18.3504 25.3609 18.5227C25.2366 18.6951 25.0626 18.831 24.8389 18.9304C24.6152 19.0298 24.355 19.0795 24.0584 19.0795C23.6689 19.0795 23.3466 18.995 23.0914 18.826C22.8362 18.657 22.6746 18.41 22.6067 18.0852L23.1635 17.946C23.2165 18.1515 23.3168 18.3056 23.4643 18.4084C23.6134 18.5111 23.8081 18.5625 24.0484 18.5625C24.3219 18.5625 24.539 18.5045 24.6997 18.3885C24.8621 18.2708 24.9433 18.13 24.9433 17.9659C24.9433 17.8333 24.8969 17.7223 24.8041 17.6328C24.7113 17.5417 24.5688 17.4737 24.3766 17.429L23.7402 17.2798C23.3905 17.197 23.1337 17.0685 22.9696 16.8945C22.8072 16.7189 22.726 16.4993 22.726 16.2358C22.726 16.0204 22.7865 15.8298 22.9074 15.6641C23.0301 15.4983 23.1966 15.3683 23.4071 15.2738C23.6192 15.1793 23.8595 15.1321 24.128 15.1321C24.5058 15.1321 24.8025 15.215 25.0179 15.3807C25.235 15.5464 25.3891 15.7652 25.4802 16.0369ZM29.1375 16.0369L28.6105 16.1861C28.5773 16.0982 28.5285 16.0129 28.4638 15.93C28.4008 15.8455 28.3147 15.7759 28.2053 15.7212C28.0959 15.6665 27.9559 15.6392 27.7852 15.6392C27.5515 15.6392 27.3568 15.6931 27.201 15.8008C27.0469 15.9068 26.9699 16.0419 26.9699 16.206C26.9699 16.3518 27.0229 16.467 27.129 16.5515C27.235 16.636 27.4007 16.7064 27.6261 16.7628L28.1929 16.902C28.5343 16.9848 28.7886 17.1116 28.956 17.2823C29.1234 17.4513 29.2071 17.6693 29.2071 17.9361C29.2071 18.1548 29.1441 18.3504 29.0182 18.5227C28.8939 18.6951 28.7199 18.831 28.4961 18.9304C28.2724 19.0298 28.0122 19.0795 27.7156 19.0795C27.3262 19.0795 27.0038 18.995 26.7486 18.826C26.4934 18.657 26.3318 18.41 26.2639 18.0852L26.8207 17.946C26.8737 18.1515 26.974 18.3056 27.1215 18.4084C27.2706 18.5111 27.4654 18.5625 27.7057 18.5625C27.9791 18.5625 28.1962 18.5045 28.3569 18.3885C28.5193 18.2708 28.6005 18.13 28.6005 17.9659C28.6005 17.8333 28.5541 17.7223 28.4613 17.6328C28.3685 17.5417 28.226 17.4737 28.0338 17.429L27.3974 17.2798C27.0477 17.197 26.7909 17.0685 26.6268 16.8945C26.4644 16.7189 26.3832 16.4993 26.3832 16.2358C26.3832 16.0204 26.4437 15.8298 26.5647 15.6641C26.6873 15.4983 26.8539 15.3683 27.0643 15.2738C27.2764 15.1793 27.5167 15.1321 27.7852 15.1321C28.163 15.1321 28.4597 15.215 28.6751 15.3807C28.8922 15.5464 29.0463 15.7652 29.1375 16.0369Z" fill="#E5E5E5"/>
</svg>
