<svg width="64" height="32" viewBox="0 0 64 32" fill="none" xmlns="http://www.w3.org/2000/svg">
<rect width="64" height="32" rx="4" fill="#262626"/>
<path d="M19.14 7.42188H28.5672L28.108 11.0368H22.0192L21.5608 14.8128H27.0496L26.5912 18.4395H21.1024L20.1848 25.8389H16.8472L19.14 7.42188Z" fill="#E5E5E5"/>
<path d="M28.72 12.0256H32.0176L30.2944 25.8357H26.9968L28.72 12.0256ZM29.12 8.30398C29.256 7.14665 30.1128 6.20905 31.04 6.20905C31.9672 6.20905 32.628 7.14665 32.5128 8.30398C32.3976 9.46131 31.5352 10.4074 30.6048 10.4074C29.6744 10.4074 28.9936 9.45385 29.12 8.30398Z" fill="#E5E5E5"/>
<path d="M33.7287 7.42188H37.0255L36.1695 14.3904H36.2399C36.7791 13.1221 37.8519 11.8464 39.4903 11.8464C41.6551 11.8464 43.3303 14.0672 42.7199 18.9397C42.1399 23.6416 39.9823 26.0331 37.6895 26.0331C36.1255 26.0331 35.3431 24.8736 35.1007 23.5968H34.9719L34.7023 25.8368H31.4399L33.7287 7.42188ZM36.9855 22.6133C38.1991 22.6133 39.0655 21.1659 39.3319 18.9365C39.5983 16.7072 39.1159 15.2853 37.8919 15.2853C36.6847 15.2853 35.8015 16.6795 35.5319 18.9365C35.2591 21.1691 35.7783 22.6133 36.9855 22.6133Z" fill="#E5E5E5"/>
<path d="M43.1032 18.9866C43.6352 14.7072 46.0088 11.8485 49.1312 11.8485C52.0712 11.8485 53.8248 14.3562 53.2584 18.897L53.1296 19.9936H46.232L46.2112 20.1557C46.0024 21.9093 46.6224 22.929 47.9104 22.929C48.7672 22.929 49.5104 22.4437 49.8864 21.5178L52.8936 21.6341C52.1592 24.3498 50.1832 26.1024 47.4536 26.1024C44.2016 26.096 42.5432 23.3994 43.1032 18.9866ZM50.372 17.44C50.5408 16.0288 49.9064 15.0218 48.828 15.0218C47.7624 15.0218 46.8184 16.0736 46.5824 17.44H50.372Z" fill="#E5E5E5"/>
<path d="M54.864 12.0256H58.064L57.744 14.5429H57.852C58.4656 12.7178 59.4832 11.84 60.616 11.84C60.9207 11.8427 61.2241 11.8929 61.52 11.9893L61.0344 15.8197C60.7312 15.6672 60.1712 15.5861 59.76 15.5861C58.5936 15.5861 57.5816 16.6922 57.3664 18.337L56.4352 25.8357H53.1384L54.864 12.0256Z" fill="#E5E5E5"/>
<path d="M17.1016 12.3104H6.34078L5.47998 13.9392L16.9024 13.9307L17.1016 12.3104Z" fill="#E5E5E5"/>
<path d="M16.7216 15.6864H2.796L1.9104 17.3088L16.5224 17.2949L16.7216 15.6864Z" fill="#E5E5E5"/>
<path d="M16.3416 19.0613H10.392L9.59204 20.6901L16.1424 20.6837L16.3416 19.0613Z" fill="#E5E5E5"/>
</svg>
