<svg width="32" height="32" viewBox="0 0 32 32" fill="none" xmlns="http://www.w3.org/2000/svg">
<rect width="32" height="32" rx="4" fill="#262626"/>
<path d="M19.1287 13.6328C19.1868 13.7623 19.0706 13.7623 19.0124 13.7623L17.0362 14.3451C16.8618 14.4747 16.7456 14.2804 16.7456 14.2804C15.525 12.5966 12.9675 13.7623 12.8512 16.2232C12.735 18.5545 15.4668 19.4612 16.7456 17.1298H14.5368C14.3625 17.1298 14.0718 17.0651 14.3625 16.4822L14.8275 15.3813C14.9437 15.1223 15.0018 15.1223 15.3506 15.1223H19.4193C19.4193 20.3678 14.1881 22.6992 11.3981 19.5259C10.1194 18.0365 9.71249 14.6689 12.3281 12.2728C14.4206 10.3948 17.9081 10.3948 19.1287 13.6328ZM20.0587 19.8497C17.4431 17.3241 18.8381 12.0786 22.9649 11.2367C27.208 10.3948 29.068 14.7985 27.3824 18.1012C25.9874 20.8859 22.2674 22.0516 20.0587 19.8497ZM25.5224 16.547C26.0455 14.928 24.9993 13.3737 23.4299 13.5033C21.6862 13.6975 20.4655 16.2232 21.5699 17.7127C22.6743 19.1374 24.9411 18.4898 25.5224 16.547ZM6.86438 16.4175V16.3527L6.98063 16.0289L7.09688 15.9641H9.47999L9.53812 16.0289L9.47999 16.3527L9.42187 16.4175H6.86438ZM4.0744 15.2518C4.0744 15.2518 3.95815 15.2518 4.01627 15.187L4.24877 14.7985L4.36502 14.7337H9.71249L9.77061 14.7985L9.65436 15.1223L9.59624 15.187L4.0744 15.2518ZM5.81814 14.0213L5.76001 13.9566L6.05064 13.6328L6.16689 13.568H10.3519V13.6328L10.1775 13.9566L10.0612 14.0213H5.81814Z" fill="#E5E5E5"/>
</svg>
