<svg width="32" height="32" viewBox="0 0 32 32" fill="none" xmlns="http://www.w3.org/2000/svg">
<g clip-path="url(#clip0_3_35)">
<rect width="32" height="32" rx="4" fill="#262626"/>
<path d="M0 0H32V32H0V0Z" fill="#262626"/>
<path d="M8.00013 27.4289L10.554 26.0431C11.0468 26.8263 11.495 27.4891 12.5701 27.4891C13.6007 27.4891 14.2506 27.1277 14.2506 25.7218V16.1608H17.3868V25.7615C17.3868 28.6739 15.4826 29.9996 12.7045 29.9996C10.1956 29.9996 8.73944 28.8349 8.00013 27.4289ZM19.0903 27.1276L21.6439 25.802C22.3162 26.7863 23.1899 27.5093 24.7355 27.5093C26.0352 27.5093 26.8638 26.9267 26.8638 26.1233C26.8638 25.1592 26.0125 24.8177 24.5787 24.2555L23.7948 23.9539C21.532 23.0905 20.0311 22.0058 20.0311 19.716C20.0311 17.6069 21.8233 16 24.6237 16C26.6175 16 28.0513 16.6228 29.0817 18.2497L26.6397 19.6558C26.1019 18.7921 25.5197 18.4507 24.6236 18.4507C23.705 18.4507 23.1225 18.973 23.1225 19.6558C23.1225 20.4994 23.705 20.841 25.0491 21.3633L25.8331 21.6645C28.4991 22.689 30 23.7333 30 26.0832C30 28.6142 27.7822 30 24.8027 30C21.8904 30 20.0087 28.7546 19.0903 27.1276Z" fill="#E5E5E5"/>
</g>
<defs>
<clipPath id="clip0_3_35">
<rect width="32" height="32" rx="4" fill="white"/>
</clipPath>
</defs>
</svg>
