<svg width="32" height="32" viewBox="0 0 32 32" fill="none" xmlns="http://www.w3.org/2000/svg">
<rect width="32" height="32" rx="4" fill="#262626"/>
<path d="M11.2 11.2L11.8485 10.7316C11.6454 10.4503 11.284 10.332 10.9539 10.4388C10.6237 10.5456 10.4 10.853 10.4 11.2H11.2ZM16 26.4C10.2562 26.4 5.6 21.7438 5.6 16H4C4 22.6274 9.37258 28 16 28V26.4ZM26.4 16C26.4 21.7438 21.7438 26.4 16 26.4V28C22.6274 28 28 22.6274 28 16H26.4ZM16 5.6C21.7438 5.6 26.4 10.2562 26.4 16H28C28 9.37258 22.6274 4 16 4V5.6ZM16 4C9.37258 4 4 9.37258 4 16H5.6C5.6 10.2562 10.2562 5.6 16 5.6V4ZM12 23.2V11.2H10.4V23.2H12ZM10.5515 11.6684L20.9515 26.0683L22.2485 25.1317L11.8485 10.7316L10.5515 11.6684ZM20 10.4V20H21.6V10.4H20Z" fill="#E5E5E5"/>
</svg>
