<svg width="32" height="32" viewBox="0 0 32 32" fill="none" xmlns="http://www.w3.org/2000/svg">
<rect width="32" height="32" rx="4" fill="#262626"/>
<path d="M7.77754 16.2525C7.77754 16.1663 7.73909 16.0864 7.67604 16.0437L5.99065 14.8993C5.9622 14.8793 5.9299 14.8694 5.89761 14.8675C5.89453 14.8675 5.88223 14.8675 5.87993 14.8675C5.84763 14.8694 5.81611 14.8793 5.78689 14.8993L4.10226 16.0437C4.03921 16.0864 4 16.1663 4 16.2525L4.00384 19.3345C4.00384 19.3772 4.02307 19.4171 4.05459 19.438C4.08612 19.4598 4.12456 19.4598 4.15608 19.438L5.15717 18.761C5.22022 18.7165 5.25867 18.6384 5.25867 18.5522V17.1119C5.25867 17.0266 5.29711 16.9468 5.36016 16.9041L5.78689 16.6146C5.81841 16.5928 5.85301 16.5828 5.88915 16.5828C5.92375 16.5828 5.95912 16.5937 5.99065 16.6146L6.41661 16.9041C6.47966 16.9468 6.5181 17.0266 6.5181 17.1119V18.5522C6.5181 18.6384 6.55731 18.7165 6.62036 18.761L7.62145 19.438C7.65298 19.4598 7.69219 19.4598 7.72295 19.438C7.7537 19.4171 7.77369 19.3772 7.77369 19.3345L7.77754 16.2525ZM16.775 12.0151C16.7435 11.9942 16.7051 11.9951 16.6743 12.0169C16.6436 12.0387 16.6243 12.0777 16.6243 12.1204V15.1725C16.6243 15.2024 16.6105 15.2306 16.589 15.2451C16.5674 15.2596 16.5398 15.2605 16.5175 15.2451L16.0953 14.9583C16.0323 14.9157 15.9546 14.9157 15.8916 14.9583L14.2062 16.1064C14.1431 16.149 14.1039 16.2289 14.1039 16.3142V18.6112C14.1039 18.6974 14.1424 18.7764 14.2054 18.819L15.8908 19.968C15.9539 20.0107 16.0315 20.0107 16.0946 19.968L17.7807 18.819C17.8438 18.7755 17.8822 18.6965 17.8822 18.6112V12.8854C17.8822 12.7983 17.8422 12.7185 17.7777 12.6758L16.7743 12.0151H16.775ZM16.619 17.857C16.619 17.8788 16.6097 17.8988 16.5936 17.9088L16.0146 18.3026C15.9992 18.3135 15.9792 18.3135 15.9639 18.3026L15.3849 17.9088C15.3687 17.8979 15.3595 17.8779 15.3595 17.857V17.0684C15.3595 17.0466 15.3695 17.0266 15.3849 17.0166L15.9639 16.6219C15.9792 16.611 15.9992 16.611 16.0146 16.6219L16.5936 17.0166C16.609 17.0275 16.619 17.0475 16.619 17.0684V17.857ZM22.8062 17.0475C22.8685 17.0048 22.9077 16.9259 22.9077 16.8397V16.2833C22.9077 16.1971 22.8692 16.1191 22.8062 16.0755L21.1315 14.9274C21.0685 14.8839 20.9908 14.8839 20.9278 14.9274L19.2424 16.0755C19.1793 16.1182 19.1409 16.198 19.1409 16.2833V18.5795C19.1409 18.6657 19.1801 18.7455 19.2439 18.7882L20.9186 19.9145C20.9801 19.9562 21.0562 19.9562 21.1185 19.9154L22.1311 19.251C22.1626 19.2302 22.1826 19.1902 22.1834 19.1467C22.1841 19.1031 22.1642 19.0632 22.1326 19.0414L20.4365 17.8924C20.4049 17.8716 20.3857 17.8316 20.3857 17.7881V17.0684C20.3857 17.0257 20.4049 16.9858 20.4365 16.964L20.9647 16.6055C20.9962 16.5846 21.0347 16.5846 21.0662 16.6055L21.5944 16.964C21.6259 16.9858 21.6452 17.0248 21.6452 17.0684V17.6347C21.6452 17.6773 21.6644 17.7173 21.6959 17.7391C21.7274 17.7608 21.7666 17.7599 21.7982 17.7391L22.8069 17.0466L22.8062 17.0475ZM10.8431 14.9157C10.9061 14.873 10.9838 14.873 11.0468 14.9157L12.7322 16.0637C12.7953 16.1064 12.8337 16.1853 12.8337 16.2715V18.5695C12.8337 18.6557 12.7945 18.7346 12.7322 18.7773L11.0468 19.9263C10.9838 19.9689 10.9061 19.9689 10.8431 19.9263L9.15769 18.7773C9.09464 18.7346 9.05619 18.6548 9.05619 18.5695V16.2715C9.05619 16.1853 9.09464 16.1064 9.15769 16.0637L10.8431 14.9157ZM26.0786 19.9589C26.0209 19.9589 25.9625 19.9408 25.9117 19.9063L25.3812 19.536C25.302 19.4834 25.3412 19.4652 25.3666 19.4543C25.4719 19.4108 25.4934 19.4008 25.6065 19.3255C25.618 19.3173 25.6341 19.3209 25.6464 19.3291L26.054 19.615C26.0686 19.625 26.0893 19.625 26.1032 19.615L27.6924 18.5323C27.7071 18.5223 27.7163 18.5023 27.7163 18.4814V16.316C27.7163 16.2951 27.7071 16.2752 27.6917 16.2643L26.1032 15.1825C26.0886 15.1725 26.0686 15.1725 26.054 15.1825L24.4654 16.2643C24.4501 16.2743 24.4401 16.2951 24.4401 16.316V18.4814C24.4401 18.5023 24.4501 18.5214 24.4647 18.5313L24.8999 18.8281C25.1359 18.9679 25.2805 18.8036 25.2805 18.6384V16.5011C25.2805 16.4712 25.3012 16.4476 25.3266 16.4476H25.528C25.5534 16.4476 25.5742 16.4712 25.5742 16.5011V18.6384C25.5742 19.0105 25.4027 19.2238 25.1036 19.2238C25.0121 19.2238 24.9391 19.2238 24.7376 19.1067L24.3209 18.8236C24.2179 18.7537 24.154 18.6221 24.154 18.4814V16.316C24.154 16.1753 24.2179 16.0437 24.3209 15.9739L25.9102 14.8902C26.0109 14.8231 26.1447 14.8231 26.2439 14.8902L27.8332 15.9739C27.9362 16.0437 28 16.1753 28 16.316V18.4814C28 18.6221 27.9362 18.7528 27.8332 18.8236L26.2439 19.9063C26.1931 19.9408 26.1355 19.9589 26.0762 19.9589H26.0786ZM26.5699 18.4678C25.874 18.4678 25.7287 18.0912 25.7287 17.7744C25.7287 17.7445 25.7487 17.7209 25.7748 17.7209H25.9801C26.0032 17.7209 26.0224 17.7409 26.0255 17.7672C26.0563 18.014 26.1485 18.1393 26.5699 18.1393C26.9043 18.1393 27.0474 18.0494 27.0474 17.8407C27.0474 17.72 27.0074 17.6301 26.4868 17.5702C26.0524 17.5194 25.7833 17.406 25.7833 16.9958C25.7833 16.6173 26.054 16.3913 26.5068 16.3913C27.0158 16.3913 27.268 16.6001 27.2995 17.0475C27.3011 17.0629 27.2965 17.0774 27.2872 17.0892C27.278 17.101 27.2665 17.1065 27.2534 17.1065H27.0474C27.0258 17.1065 27.0074 17.0883 27.0028 17.0638C26.9535 16.8043 26.8328 16.7208 26.5068 16.7208C26.1416 16.7208 26.0985 16.8714 26.0985 16.984C26.0985 17.121 26.1485 17.16 26.6421 17.2372C27.1304 17.3134 27.3626 17.4214 27.3626 17.8262C27.3626 18.2346 27.0743 18.4687 26.5706 18.4687L26.5699 18.4678ZM21.0039 16.9404C21.0162 16.9322 21.0308 16.9322 21.0431 16.9404L21.3668 17.1609C21.3791 17.1691 21.3868 17.1845 21.3868 17.2009V17.6419C21.3868 17.6583 21.3791 17.6737 21.3668 17.6819L21.0431 17.9024C21.0308 17.9106 21.0162 17.9106 21.0039 17.9024L20.681 17.6819C20.6687 17.6737 20.6618 17.6583 20.6618 17.6419V17.2009C20.6618 17.1845 20.6694 17.1691 20.681 17.1609L21.0039 16.9404Z" fill="#E5E5E5"/>
</svg>
