<svg width="32" height="32" viewBox="0 0 32 32" fill="none" xmlns="http://www.w3.org/2000/svg">
<rect width="32" height="32" rx="4" fill="#262626"/>
<path d="M18.3216 15.9777C18.3216 14.6537 17.2823 13.5801 15.9999 13.5801C14.7178 13.5801 13.6782 14.6537 13.6782 15.9777C13.6782 17.302 14.7178 18.3754 15.9999 18.3754C17.2823 18.3754 18.3216 17.302 18.3216 15.9777Z" fill="#E5E5E5"/>
<path fill-rule="evenodd" clip-rule="evenodd" d="M23.5403 11.5265C24.0306 9.46903 24.6469 5.65367 22.4743 4.36015C20.3119 3.07226 17.4979 5.54009 16.012 7.0214C14.5305 5.55485 11.6375 3.09757 9.46675 4.3952C7.30518 5.68741 7.97175 9.43951 8.47291 11.5099C6.45654 12.1013 3 13.3751 3 15.9778C3 18.573 6.45294 19.9589 8.45738 20.5498C7.95437 22.6316 7.32117 26.3301 9.4855 27.6194C11.6643 28.9168 14.5483 26.518 16.048 25.0205C17.5434 26.5105 20.3304 28.925 22.4932 27.6321C24.6629 26.335 24.0978 22.5708 23.5966 20.4885C25.5397 19.8963 29 18.5406 29 15.9778C29 13.4002 25.5249 12.116 23.5403 11.5265ZM23.294 19.3849C22.965 18.3092 22.5208 17.1652 21.9775 15.9835C22.4961 14.8296 22.923 13.7004 23.2429 12.6316C24.6978 13.0672 27.8894 14.0627 27.8894 15.9778C27.8894 17.9108 24.8267 18.9157 23.294 19.3849ZM21.9367 26.6394C20.3229 27.604 17.9258 25.295 16.8214 24.1978C17.5541 23.3702 18.2863 22.4082 19.0008 21.3399C20.2578 21.2248 21.4453 21.0365 22.5222 20.7794C22.8749 22.2524 23.5575 25.6704 21.9367 26.6394ZM10.0405 26.6256C8.42657 25.6646 9.16424 22.3642 9.53429 20.8307C10.5992 21.0741 11.7781 21.2491 13.0381 21.3546C13.7573 22.3999 14.5107 23.3607 15.2699 24.2022C14.3319 25.1392 11.6619 27.5911 10.0405 26.6256ZM4.11062 15.9778C4.11062 14.0375 7.28313 13.0492 8.77117 12.6147C9.09658 13.7075 9.52336 14.8502 10.0384 16.0057C9.51668 17.1784 9.0838 18.3392 8.7554 19.4449C7.33653 19.0255 4.11062 17.9192 4.11062 15.9778ZM10.0232 5.38788C11.6437 4.41922 14.1581 6.7783 15.2338 7.84012C14.4785 8.67773 13.732 9.63132 13.0189 10.6706C11.7961 10.7877 10.6256 10.9756 9.54948 11.2274C9.14575 9.55758 8.40446 6.3555 10.0232 5.38788ZM19.7954 11.9173C20.625 12.0254 21.4198 12.1692 22.1661 12.3452C21.942 13.0868 21.6628 13.8622 21.3339 14.6572C20.8571 13.723 20.3454 12.8076 19.7954 11.9173ZM16.0124 8.65978C16.5247 9.23289 17.0377 9.87289 17.5425 10.5672C16.5187 10.5172 15.4933 10.517 14.4695 10.5665C14.9746 9.8786 15.4921 9.23955 16.0124 8.65978ZM10.6756 14.6564C10.3522 13.8642 10.0754 13.0853 9.84946 12.3331C10.5913 12.1617 11.3824 12.0215 12.2066 11.9152C11.6551 12.8036 11.1442 13.7186 10.6756 14.6564ZM12.2303 20.1222C11.3788 20.0241 10.5758 19.891 9.83415 19.7243C10.0637 18.9589 10.3465 18.1632 10.6769 17.354C11.1519 18.3015 11.6706 19.2254 12.2303 20.1222ZM16.0432 23.3768C15.5167 22.7902 14.9916 22.1413 14.4788 21.4435C15.5084 21.4852 16.54 21.4853 17.5695 21.4378C17.0632 22.1484 16.552 22.7982 16.0432 23.3768ZM21.3445 17.3128C21.692 18.1308 21.9849 18.9222 22.2176 19.6747C21.4637 19.8524 20.6498 19.9954 19.7923 20.1017C20.3463 19.1945 20.8662 18.2649 21.3445 17.3128ZM18.381 20.2407C16.8061 20.3569 15.2214 20.3556 13.646 20.2502C12.7508 18.8998 11.9539 17.4797 11.266 16.0054C11.9506 14.5341 12.7417 13.1167 13.6326 11.7684C15.2092 11.6454 16.7954 11.645 18.372 11.7692C19.2553 13.1173 20.0452 14.531 20.7456 15.989C20.0535 17.4596 19.2582 18.8798 18.381 20.2407ZM21.9196 5.35378C23.5405 6.31927 22.819 9.74824 22.4649 11.2393C21.3862 10.9822 20.2149 10.791 18.9885 10.6721C18.274 9.62157 17.5338 8.66632 16.7907 7.83953C17.8802 6.75484 20.3144 4.39774 21.9196 5.35378Z" fill="#E5E5E5"/>
</svg>
