<svg width="32" height="32" viewBox="0 0 32 32" fill="none" xmlns="http://www.w3.org/2000/svg">
<rect width="32" height="32" rx="4" fill="#262626"/>
<path d="M16.1748 18.331C15.6841 18.5206 15.1464 18.7677 14.07 19.2645C13.6619 19.4575 13.2354 19.6506 12.8385 19.8325C12.811 19.8093 12.7824 19.7801 12.7549 19.7561C10.6255 17.8428 6.68726 16.4915 6.85459 13.9218C6.91682 12.9858 7.29943 10.5285 14.4179 7.54442C20.2764 5.11632 24.938 5.78898 25.743 7.28102C26.9 9.40796 23.2444 13.3658 17.1941 13.9398C16.5245 14.054 15.8329 14.0403 15.1705 13.8995C14.508 13.7587 13.8917 13.4945 13.367 13.1265C13.0467 12.8339 12.9987 12.8167 12.8804 12.8751C12.6855 12.9609 12.811 13.226 12.8804 13.3779C13.1111 13.7292 13.4234 14.0381 13.7986 14.2863C14.1738 14.5345 14.6043 14.7169 15.0648 14.8227C17.4457 15.2555 19.9281 15.0487 22.1618 14.2315C25.8287 13.0381 28.6916 9.72027 27.853 6.93868C27.0112 4.11849 21.4446 3.18843 16.1779 4.76198C12.8796 5.69666 9.8323 7.16803 7.20964 9.09222C4.30797 11.3745 3.84884 13.3581 4.03657 14.1886C4.712 17.1375 9.54609 19.0569 11.4846 20.4785C11.3826 20.5257 11.2969 20.5643 11.2204 20.6012C10.2531 21.0053 6.56585 22.6261 5.64658 24.3403C4.60283 26.2828 5.8139 27.6753 6.6138 27.8623C7.81925 28.1052 9.08478 28.0253 10.2337 27.634C11.3826 27.2427 12.3574 26.5594 13.0222 25.6796C13.5867 24.9501 13.9333 24.1166 14.0326 23.2503C14.1319 22.3839 13.9809 21.5101 13.5925 20.7033C13.8217 20.5496 14.0661 20.4127 14.323 20.2941C14.8169 20.0487 15.2872 19.8067 15.7045 19.6197C17.1333 19.0569 18.6925 18.7671 20.2702 18.7711C23.5821 19.0989 24.2361 20.8363 24.1106 21.5682C24.0519 21.8278 23.9277 22.0739 23.7464 22.2898C23.5652 22.5058 23.331 22.6865 23.0597 22.82C22.8301 22.9427 22.7536 22.9838 22.774 23.0714C22.8016 23.2001 22.9128 23.1941 23.1076 23.1709C23.6052 23.0386 24.0436 22.7829 24.3652 22.4373C24.6868 22.0917 24.8765 21.6724 24.9095 21.2344C25.0115 19.5184 23.0658 17.636 19.6213 17.6532C18.59 17.6547 17.5689 17.8258 16.6156 18.1568C16.4626 18.21 16.3139 18.2672 16.1697 18.3284L16.1748 18.331ZM11.252 25.0567C10.1521 26.0631 8.62171 26.4432 7.96057 26.1215C7.24637 25.7783 7.52899 24.2897 8.87882 23.2249C9.67827 22.6192 10.5424 22.0767 11.4601 21.6042C11.6203 21.5184 11.857 21.4052 12.1417 21.261C12.1907 21.2378 12.2182 21.2258 12.2182 21.2258L12.3855 21.14C12.6263 21.8188 12.6482 22.5392 12.449 23.2274C12.2498 23.9156 11.8367 24.5469 11.252 25.0567Z" fill="#E5E5E5"/>
</svg>
