<svg width="32" height="32" viewBox="0 0 32 32" fill="none" xmlns="http://www.w3.org/2000/svg">
<rect width="32" height="32" rx="4" fill="#262626"/>
<path d="M10 13.6667C10.8 9.88889 12.8 8 16 8C20.8 8 21.4 12.25 23.8 12.9583C25.4 13.4306 26.8 12.7222 28 10.8333C27.2 14.6111 25.2 16.5 22 16.5C17.2 16.5 16.6 12.25 14.2 11.5417C12.6 11.0694 11.2 11.7778 10 13.6667ZM4 22.1667C4.8 18.3889 6.8 16.5 10 16.5C14.8 16.5 15.4 20.75 17.8 21.4583C19.4 21.9306 20.8 21.2222 22 19.3333C21.2 23.1111 19.2 25 16 25C11.2 25 10.6 20.75 8.2 20.0417C6.6 19.5694 5.2 20.2778 4 22.1667Z" fill="#E5E5E5"/>
</svg>
