<svg width="32" height="32" viewBox="0 0 32 32" fill="none" xmlns="http://www.w3.org/2000/svg">
<rect width="32" height="32" rx="4" fill="#262626"/>
<path fill-rule="evenodd" clip-rule="evenodd" d="M20.5025 26.2252V29.2449C21.0688 29.5158 21.6723 29.7064 22.2945 29.8109C23.0136 29.9395 23.7434 30.0028 24.4746 29.9999C25.1873 30.0032 25.8982 29.9336 26.5958 29.7922C27.2221 29.6696 27.8196 29.436 28.3584 29.1032C28.8585 28.7904 29.2707 28.3622 29.5581 27.8571C30.0728 26.8111 30.1407 25.6107 29.7471 24.5165C29.581 24.1073 29.3335 23.7337 29.0187 23.417C28.6808 23.0803 28.2969 22.7898 27.8778 22.5538C27.3953 22.28 26.894 22.0386 26.3774 21.8314C25.971 21.668 25.6053 21.5092 25.2802 21.355C24.9915 21.221 24.7152 21.0633 24.4543 20.8835C24.25 20.7447 24.0725 20.5721 23.9301 20.3736C23.807 20.1934 23.743 19.9814 23.7462 19.7654C23.7435 19.5665 23.8007 19.3712 23.9108 19.2033C24.0304 19.0277 24.1899 18.8809 24.3771 18.7742C24.6059 18.6436 24.855 18.5496 25.1146 18.4956C25.4334 18.427 25.7593 18.394 26.0858 18.3972C26.3605 18.3981 26.6347 18.4172 26.9067 18.4543C27.2003 18.4928 27.4909 18.551 27.7763 18.6285C28.0665 18.7065 28.3504 18.8052 28.6255 18.9238C28.8925 19.0391 29.1479 19.1782 29.3885 19.3392V16.5212C28.8877 16.3376 28.3685 16.2057 27.8392 16.1275C27.2001 16.0374 26.5549 15.9949 25.9091 16.0005C25.2031 15.9968 24.4993 16.0744 23.8123 16.2318C23.1913 16.3693 22.6009 16.6136 22.069 16.9533C21.575 17.2721 21.167 17.7011 20.8794 18.2043C20.5746 18.763 20.4238 19.3885 20.4416 20.0203C20.419 20.8557 20.7031 21.6718 21.2431 22.3235C21.9056 23.046 22.7411 23.6 23.6761 23.9367C24.1028 24.1073 24.5007 24.2743 24.8698 24.4377C25.2028 24.5813 25.5229 24.7515 25.8268 24.9466C26.0718 25.1011 26.2871 25.2959 26.4627 25.5224C26.6171 25.7278 26.6991 25.976 26.6964 26.2301C26.6978 26.4205 26.6473 26.6079 26.5501 26.7734C26.442 26.9513 26.2902 27.1004 26.1082 27.2075C25.8804 27.342 25.6312 27.4392 25.3706 27.4949C25.0313 27.5684 24.6842 27.6031 24.3365 27.5982C23.6541 27.597 22.9772 27.4805 22.3362 27.2538C21.6665 27.0196 21.0455 26.6713 20.5025 26.2252ZM15.2666 18.7073H19.3302V16.22H8V18.7073H12.0453V29.7843H15.2666V18.7073Z" fill="#E5E5E5"/>
</svg>
